<?xml version="1.0"?>
<svg xmlns="http://www.w3.org/2000/svg" xmlns:xlink="http://www.w3.org/1999/xlink" xmlns:svgjs="http://svgjs.com/svgjs" version="1.1" width="512" height="512" x="0" y="0" viewBox="0 0 512 512" style="enable-background:new 0 0 512 512" xml:space="preserve" class=""><g><g xmlns="http://www.w3.org/2000/svg" id="Solid"><path d="M172.686,136l-104-104H16V212.687l40,40ZM40,192a16,16,0,1,1,16,16A16.018,16.018,0,0,1,40,192ZM172.686,392l-19.713,19.713A14.578,14.578,0,0,1,142.63,416a14.627,14.627,0,0,1-10.343-24.973L152,371.314Zm-32-32-19.713,19.713A14.578,14.578,0,0,1,110.63,384a14.627,14.627,0,0,1-10.343-24.973L120,339.314ZM67.314,264,184,147.314,204.686,168,88,284.687ZM408,284.687,291.314,168,312,147.314,428.686,264Zm-76.749-15.906,9.187-6.125-8.876-13.312-9.187,6.125a66,66,0,0,1-70.259,1.671,8,8,0,0,0-9.773,1.2l-16,16a37.326,37.326,0,0,1-46.418,5.046L280,179.314,396.686,296,376,316.686l-46.67-46.67C329.974,269.612,330.616,269.205,331.251,268.781ZM204.686,424l-19.713,19.713A14.578,14.578,0,0,1,174.63,448a14.627,14.627,0,0,1-10.343-24.973L184,403.314ZM400,369.37A14.635,14.635,0,0,1,379.789,382.9a14.69,14.69,0,0,1-4.762-3.183l-57.37-57.37-11.314,11.314,57.37,57.37A14.631,14.631,0,0,1,347.789,414.9a14.69,14.69,0,0,1-4.762-3.183l-57.37-57.37-11.314,11.314,57.37,57.37A14.631,14.631,0,0,1,315.789,446.9a14.69,14.69,0,0,1-4.762-3.183l-57.37-57.37-11.314,11.314,57.37,57.37A14.631,14.631,0,0,1,283.789,478.9a14.69,14.69,0,0,1-4.762-3.183L99.314,296,216,179.314,236.686,200l-74.343,74.343a8,8,0,0,0,0,11.314,53.318,53.318,0,0,0,75.314,0l11.763-11.763a82.247,82.247,0,0,0,64.716,3.556l81.577,81.577A14.53,14.53,0,0,1,400,369.37ZM216,435.314,236.686,456l-19.713,19.713A14.578,14.578,0,0,1,206.63,480a14.627,14.627,0,0,1-10.343-24.973ZM323.314,136,440,252.686l48-48V32H427.313ZM440,176a16,16,0,1,1-16,16A16.018,16.018,0,0,1,440,176ZM96,424v16a56.063,56.063,0,0,1-56-56H56A40.045,40.045,0,0,0,96,424Zm344-40h16a56.063,56.063,0,0,1-56,56V424A40.045,40.045,0,0,0,440,384Z" fill="#ffffff" data-original="#000000" style="" class=""/></g></g></svg>
