<?xml version="1.0"?>
<svg xmlns="http://www.w3.org/2000/svg" xmlns:xlink="http://www.w3.org/1999/xlink" xmlns:svgjs="http://svgjs.com/svgjs" version="1.1" width="512" height="512" x="0" y="0" viewBox="0 0 508 508" style="enable-background:new 0 0 512 512" xml:space="preserve" class=""><g><g xmlns="http://www.w3.org/2000/svg"><path d="m470.958 0h-433.916c-20.426 0-37.042 16.616-37.042 37.042v52.917c0 20.425 16.616 37.041 37.042 37.041h433.917c20.425 0 37.041-16.616 37.041-37.042v-52.916c0-20.426-16.616-37.042-37.042-37.042z" fill="#ffffff" data-original="#000000" style="" class=""/><path d="m301.625 169.333h-264.583c-20.32 0-37.042 16.722-37.042 37.042v264.583c0 20.32 16.722 37.042 37.042 37.042h264.583c20.32 0 37.042-16.722 37.042-37.042v-264.583c0-20.32-16.722-37.042-37.042-37.042zm-132.292 84.667c17.568 0 31.75 14.182 31.75 31.75s-14.182 31.75-31.75 31.75-31.75-14.182-31.75-31.75 14.182-31.75 31.75-31.75zm63.5 132.292c0 8.678-7.197 15.875-15.875 15.875h-95.25c-8.678 0-15.875-7.197-15.875-15.875v-7.832c0-22.013 19.897-39.793 44.45-39.793h38.1c24.553 0 44.45 17.78 44.45 39.793z" fill="#ffffff" data-original="#000000" style="" class=""/><circle cx="444.5" cy="433.917" r="63.5" fill="#ffffff" data-original="#000000" style="" class=""/><path d="m492.125 232.833h-95.25c-8.763 0-15.875 7.112-15.875 15.875s7.112 15.875 15.875 15.875h95.25c8.763 0 15.875-7.112 15.875-15.875s-7.112-15.875-15.875-15.875z" fill="#ffffff" data-original="#000000" style="" class=""/><path d="m492.125 169.333h-95.25c-8.763 0-15.875 7.112-15.875 15.875s7.112 15.875 15.875 15.875h95.25c8.763 0 15.875-7.112 15.875-15.875s-7.112-15.875-15.875-15.875z" fill="#ffffff" data-original="#000000" style="" class=""/><path d="m492.125 296.333h-95.25c-8.763 0-15.875 7.112-15.875 15.875s7.112 15.875 15.875 15.875h95.25c8.763 0 15.875-7.112 15.875-15.875s-7.112-15.875-15.875-15.875z" fill="#ffffff" data-original="#000000" style="" class=""/></g></g></svg>
