<?xml version="1.0"?>
<svg xmlns="http://www.w3.org/2000/svg" xmlns:xlink="http://www.w3.org/1999/xlink" xmlns:svgjs="http://svgjs.com/svgjs" version="1.1" width="512" height="512" x="0" y="0" viewBox="0 0 64 64" style="enable-background:new 0 0 512 512" xml:space="preserve" class=""><g><path xmlns="http://www.w3.org/2000/svg" d="m32.219 21h-.438l-1.5 6h3.438z" fill="#ffffff" data-original="#000000" style="" class=""/><path xmlns="http://www.w3.org/2000/svg" d="m14 8c0 .552.449 1 1 1h35v-2h-35c-.551 0-1 .448-1 1z" fill="#ffffff" data-original="#000000" style="" class=""/><path xmlns="http://www.w3.org/2000/svg" d="m15 13h37v-2h-37c-1.654 0-3-1.346-3-3s1.346-3 3-3h33v-2h-33c-2.757 0-5 2.243-5 5s2.243 5 5 5z" fill="#ffffff" data-original="#000000" style="" class=""/><path xmlns="http://www.w3.org/2000/svg" d="m15 15c-1.957 0-3.729-.807-5-2.105v43.105c0 2.757 2.243 5 5 5h39v-46zm13.03 12.758 2.189-8.758h3.562l2.219 9v3h-2v-2h-4v2h-2zm-12.03-8.758h10v2h-4v10h-2v-10h-4zm32 33c0 2.757-2.243 5-5 5h-22c-2.757 0-5-2.243-5-5v-12c0-2.757 2.243-5 5-5h22c2.757 0 5 2.243 5 5zm0-30.667-2.75 3.667 2.75 3.667v2.333h-2v-1.667l-2-2.667-2 2.667v1.667h-2v-2.333l2.75-3.667-2.75-3.667v-2.333h2v1.667l2 2.667 2-2.667v-1.667h2z" fill="#ffffff" data-original="#000000" style="" class=""/><path xmlns="http://www.w3.org/2000/svg" d="m43 37h-22c-1.654 0-3 1.346-3 3v12c0 1.654 1.346 3 3 3h22c1.654 0 3-1.346 3-3v-12c0-1.654-1.346-3-3-3zm-15 3c1.103 0 2 .897 2 2s-.897 2-2 2-2-.897-2-2 .897-2 2-2zm-2.707 11.293 12-12 1.414 1.414-12 12zm10.707.707c-1.103 0-2-.897-2-2s.897-2 2-2 2 .897 2 2-.897 2-2 2z" fill="#ffffff" data-original="#000000" style="" class=""/></g></svg>
